<?xml version="1.0" standalone="no"?>
<!DOCTYPE svg PUBLIC "-//W3C//DTD SVG 20010904//EN"
 "http://www.w3.org/TR/2001/REC-SVG-20010904/DTD/svg10.dtd">
<svg version="1.0" xmlns="http://www.w3.org/2000/svg"
 width="626.000000pt" height="626.000000pt" viewBox="0 0 626.000000 626.000000"
 preserveAspectRatio="xMidYMid meet">
<metadata>
Created by potrace 1.11, written by Peter Selinger 2001-2013
</metadata>
<g transform="translate(0.000000,626.000000) scale(0.100000,-0.100000)"
fill="#000000" stroke="none">
<path d="M2928 6255 c-1 -2 -41 -7 -88 -10 -99 -9 -135 -13 -135 -15 0 -1 -14
-3 -31 -5 -17 -2 -71 -11 -120 -20 -49 -10 -96 -18 -104 -19 -9 -1 -21 -5 -28
-10 -6 -4 -12 -5 -12 -2 0 3 -11 1 -26 -4 -14 -6 -37 -12 -52 -15 -15 -2 -70
-18 -122 -35 -52 -16 -101 -30 -107 -30 -7 0 -13 -4 -13 -8 0 -5 -6 -9 -12 -9
-34 0 -336 -134 -440 -195 -27 -15 -48 -24 -48 -21 0 4 -7 -2 -15 -13 -8 -10
-15 -15 -15 -10 0 4 -16 -4 -35 -18 -19 -15 -35 -23 -35 -19 0 4 -4 4 -8 -2
-9 -12 -69 -55 -77 -55 -3 0 -15 -9 -27 -20 -12 -11 -28 -20 -35 -20 -7 0 -13
-4 -13 -8 0 -5 -23 -24 -52 -42 -28 -18 -58 -42 -67 -52 -8 -10 -19 -18 -23
-18 -5 0 -16 -8 -26 -17 -10 -10 -45 -40 -78 -68 -110 -93 -309 -300 -399
-415 -20 -25 -43 -54 -53 -66 -16 -19 -122 -175 -149 -219 -102 -164 -180
-315 -239 -460 -54 -131 -57 -139 -59 -147 -2 -5 -4 -10 -5 -13 -1 -3 -4 -9
-5 -15 -1 -5 -4 -12 -5 -15 -1 -3 -3 -8 -4 -12 -1 -5 -12 -38 -25 -75 -12 -37
-20 -72 -16 -78 3 -5 2 -10 -3 -10 -8 0 -19 -39 -38 -132 -1 -5 -2 -9 -4 -10
-9 -12 -51 -266 -54 -325 -1 -13 -3 -23 -6 -23 -18 0 -18 -690 0 -690 3 0 6
-21 8 -48 1 -26 5 -58 7 -72 16 -87 38 -217 38 -227 0 -7 5 -13 10 -13 5 0 7
-6 4 -14 -3 -8 -3 -17 1 -21 4 -3 7 -12 8 -18 2 -35 18 -98 25 -103 5 -3 9
-18 9 -35 0 -16 5 -29 10 -29 6 0 10 -6 9 -12 -4 -19 23 -102 35 -110 6 -4 7
-10 3 -14 -3 -4 0 -19 7 -33 21 -38 61 -145 58 -153 -1 -5 3 -8 8 -8 6 0 10
-5 10 -11 0 -5 19 -49 42 -97 23 -48 41 -89 39 -91 -1 -2 1 -7 6 -10 9 -6 46
-68 80 -133 17 -33 172 -265 199 -298 11 -13 27 -31 36 -42 10 -10 16 -18 13
-18 -3 0 3 -8 13 -18 9 -10 40 -45 67 -78 50 -59 216 -228 290 -295 22 -19 87
-72 145 -117 58 -45 110 -86 115 -91 33 -25 168 -111 176 -111 5 0 9 -4 9 -9
0 -5 15 -15 34 -21 19 -6 36 -15 38 -20 5 -14 276 -146 408 -198 102 -41 240
-87 352 -118 26 -8 71 -16 86 -17 6 0 12 -3 12 -7 0 -3 8 -6 18 -7 32 -3 77
-11 92 -16 18 -6 162 -28 216 -32 21 -2 39 -4 39 -5 0 -7 168 -14 340 -14 221
0 302 5 323 17 7 5 12 3 12 -3 0 -6 5 -8 10 -5 6 4 23 8 38 10 15 2 41 6 57 8
17 3 62 11 102 17 86 14 108 18 108 20 0 1 7 3 15 5 8 2 26 6 40 9 52 11 66
14 110 25 25 7 52 15 60 18 8 3 20 7 25 8 6 0 17 4 25 7 8 3 69 25 135 48 66
23 152 56 190 74 39 18 94 43 123 56 28 13 52 28 52 32 0 5 4 7 9 3 5 -3 16 2
24 10 9 8 22 15 30 15 9 0 17 3 19 8 2 4 29 21 60 37 32 17 58 34 58 38 0 5 4
6 9 3 5 -3 11 1 15 9 3 8 10 15 16 15 9 0 108 63 145 92 56 44 115 88 119 88
3 0 16 10 29 23 12 12 52 47 87 77 109 92 338 330 388 401 9 13 21 29 27 35 5
6 19 23 30 38 11 15 28 37 37 48 10 11 32 44 50 72 18 28 36 52 40 54 5 2 8 8
8 12 0 5 18 37 40 71 22 34 40 68 40 76 0 7 4 13 9 13 8 0 52 83 50 96 0 4 3
10 8 13 8 5 21 31 93 186 10 22 27 63 38 90 10 28 22 59 27 70 4 11 9 25 11
30 1 6 12 37 23 70 25 71 21 56 65 225 19 74 38 158 42 185 4 28 9 52 9 55 2
9 18 124 21 150 1 14 3 25 4 25 13 0 19 489 8 620 -3 39 -7 70 -8 70 -2 0 -3
7 -14 100 -9 72 -22 149 -32 198 -11 51 -14 60 -19 77 -3 10 -7 27 -9 37 -2
10 -10 38 -17 63 -13 49 -17 63 -22 83 -5 21 -38 121 -47 142 -4 11 -20 52
-35 90 -49 128 -126 290 -192 403 -26 46 -52 91 -58 101 -33 57 -119 181 -126
181 -5 0 -9 6 -9 13 0 7 -16 30 -35 52 -19 22 -35 43 -35 47 0 4 -10 18 -22
31 -13 13 -43 48 -68 77 -48 57 -300 313 -300 305 0 -3 -15 9 -32 26 -43 41
-194 159 -203 159 -4 0 -17 10 -29 23 -12 12 -35 29 -51 37 -17 8 -32 18 -35
21 -5 6 -80 55 -115 75 -11 6 -49 28 -85 48 -88 50 -259 132 -350 168 -122 49
-272 98 -280 93 -5 -3 -10 -1 -12 4 -1 6 -14 12 -28 14 -14 3 -54 13 -90 22
-104 27 -235 53 -310 61 -45 4 -85 11 -85 14 0 7 -559 22 -567 15z m26 -237
c12 11 309 11 324 -1 8 -6 12 -6 12 0 0 6 12 9 28 7 15 -2 58 -6 96 -9 39 -4
73 -8 77 -10 3 -3 32 -7 64 -11 32 -3 68 -8 79 -11 12 -2 32 -6 46 -7 14 -2
43 -8 65 -14 22 -6 51 -13 65 -16 110 -22 342 -100 460 -154 19 -8 37 -16 40
-17 3 0 20 -9 38 -18 17 -10 32 -15 32 -12 0 4 7 -1 16 -9 8 -9 19 -14 24 -11
5 3 10 2 12 -2 1 -5 23 -19 48 -32 59 -32 110 -59 136 -74 25 -15 155 -99 169
-110 6 -4 28 -21 50 -37 52 -38 94 -72 111 -88 8 -7 14 -11 14 -9 0 8 90 -74
204 -188 135 -134 182 -187 268 -300 12 -16 26 -34 31 -40 37 -47 88 -122 92
-137 4 -10 11 -18 17 -18 6 0 9 -3 5 -6 -5 -6 0 -15 31 -49 7 -8 10 -15 6 -15
-3 0 -1 -7 6 -15 18 -21 52 -85 106 -195 25 -52 52 -107 60 -121 7 -14 11 -29
7 -33 -3 -3 -2 -6 4 -6 6 0 14 -12 18 -27 3 -15 15 -46 25 -69 11 -22 21 -52
24 -66 2 -15 9 -35 15 -46 6 -11 7 -22 4 -26 -3 -3 0 -6 7 -6 7 0 10 -3 7 -6
-3 -4 -2 -14 3 -24 5 -9 11 -28 14 -41 3 -13 10 -42 16 -64 6 -22 12 -46 12
-52 1 -7 6 -13 11 -13 5 0 4 -6 -2 -14 -7 -8 -8 -17 -3 -20 6 -3 13 -20 16
-38 3 -18 8 -44 11 -58 7 -34 15 -89 19 -125 2 -16 5 -30 6 -30 10 0 24 -237
24 -410 -1 -176 -10 -309 -28 -405 -3 -14 -7 -41 -10 -60 -8 -52 -20 -111 -31
-160 -3 -14 -7 -34 -10 -45 -2 -11 -12 -47 -21 -80 -9 -33 -17 -64 -18 -70 -1
-5 -5 -16 -9 -22 -5 -7 -5 -17 -2 -23 3 -5 2 -10 -3 -10 -5 0 -15 -21 -22 -47
-8 -27 -28 -83 -46 -126 -19 -42 -33 -79 -34 -82 0 -3 -22 -52 -50 -110 -28
-58 -50 -108 -49 -111 0 -4 -3 -10 -9 -13 -5 -3 -20 -27 -34 -52 -45 -81 -53
-94 -59 -99 -3 -3 -16 -23 -29 -45 -13 -22 -33 -52 -44 -67 -35 -45 -57 -77
-56 -83 0 -3 -12 -17 -26 -30 -15 -14 -24 -25 -21 -25 3 0 -4 -10 -16 -23 -12
-12 -35 -40 -52 -62 -37 -49 -285 -297 -344 -345 -24 -19 -49 -40 -55 -46 -6
-6 -49 -38 -96 -72 -47 -34 -96 -71 -110 -82 -14 -11 -28 -20 -33 -20 -4 0
-29 -15 -55 -32 -26 -18 -65 -42 -87 -53 -22 -11 -42 -23 -45 -26 -7 -10 -197
-99 -210 -99 -5 0 -10 -4 -10 -10 0 -5 -6 -10 -14 -10 -7 0 -38 -11 -67 -24
-30 -13 -99 -38 -154 -56 -55 -18 -107 -35 -115 -38 -44 -15 -190 -50 -190
-44 0 2 -6 0 -12 -6 -7 -5 -35 -13 -63 -16 -60 -8 -100 -14 -140 -22 -32 -6
-48 -8 -165 -20 -134 -14 -477 -8 -605 11 -56 8 -90 14 -135 21 -25 3 -54 8
-65 9 -11 2 -40 8 -65 15 -25 7 -52 13 -60 15 -61 12 -266 73 -310 92 -8 3
-17 7 -20 8 -3 1 -14 5 -25 10 -93 39 -165 69 -190 78 -16 7 -32 15 -35 19 -8
10 -83 42 -92 40 -5 -1 -8 2 -8 7 0 5 -14 14 -31 21 -17 7 -36 18 -42 24 -7 6
-33 22 -59 35 -26 13 -55 31 -65 40 -10 10 -26 20 -37 24 -10 4 -30 16 -45 28
-14 11 -62 47 -106 80 -142 106 -346 298 -455 428 -25 29 -53 62 -63 72 -9 11
-17 22 -17 25 0 3 -6 11 -13 19 -36 38 -127 169 -127 183 0 6 -4 12 -9 14 -19
7 -173 285 -228 413 -72 168 -131 347 -158 475 -1 8 -8 34 -15 58 -6 24 -13
56 -15 72 -2 16 -6 37 -9 47 -3 10 -8 43 -11 73 -3 30 -8 69 -10 85 -3 17 -7
59 -9 93 -3 35 -7 66 -10 69 -3 3 -1 13 4 23 5 10 6 21 2 25 -10 10 -9 305 2
305 4 0 3 6 -3 13 -6 8 -9 16 -7 18 2 2 7 31 10 63 4 33 9 74 11 93 8 52 14
100 21 141 9 63 63 283 90 367 14 44 27 88 29 97 2 9 9 27 16 40 8 13 14 25
14 28 0 6 21 58 43 110 27 65 112 235 142 285 16 28 35 62 42 78 7 15 16 27
20 27 4 0 8 7 8 15 0 8 4 15 8 15 5 0 17 18 27 40 10 22 20 38 23 35 3 -2 18
16 34 42 16 25 36 52 44 60 8 8 14 18 14 21 0 4 12 21 27 38 16 17 44 50 63
74 36 46 276 289 320 325 14 11 53 42 88 69 34 27 62 52 62 56 0 5 14 13 30
19 17 5 30 15 30 20 0 6 5 11 11 11 6 0 25 11 43 25 18 14 38 25 44 25 6 0 12
4 14 9 4 10 79 58 133 85 22 11 42 23 45 26 8 10 215 110 228 110 7 0 12 5 12
12 0 6 3 9 6 6 5 -5 45 9 119 42 25 12 144 51 168 55 9 2 22 7 27 10 5 3 18 8
27 10 10 2 65 16 123 30 58 14 121 28 140 31 19 3 53 9 76 13 22 4 48 7 57 5
9 -1 17 1 17 5 0 4 10 7 23 7 37 1 151 15 156 19 2 3 9 0 16 -5 7 -5 15 -6 19
-2z"/>
<path d="M2928 5765 c-2 -2 -26 -6 -53 -9 -28 -2 -50 -5 -50 -6 0 -1 -16 -3
-35 -5 -56 -6 -207 -31 -235 -39 -5 -2 -28 -6 -50 -11 -22 -4 -44 -10 -50 -14
-5 -3 -16 -6 -23 -7 -7 -2 -46 -13 -85 -25 -40 -12 -74 -23 -77 -24 -3 -1 -12
-4 -20 -7 -8 -4 -28 -11 -45 -16 -64 -20 -271 -116 -282 -130 -7 -9 -13 -13
-13 -9 0 4 -21 -4 -47 -18 -53 -28 -63 -34 -145 -87 -31 -21 -62 -38 -67 -38
-6 0 -11 -4 -11 -9 0 -4 -19 -21 -42 -36 -43 -29 -57 -39 -87 -65 -9 -8 -33
-26 -54 -40 -20 -14 -37 -31 -37 -38 0 -7 -4 -11 -9 -8 -5 3 -23 -10 -40 -29
-17 -19 -33 -35 -36 -35 -10 0 -145 -141 -145 -151 0 -6 -4 -7 -10 -4 -5 3
-10 2 -10 -3 0 -5 -15 -25 -32 -44 -46 -49 -70 -79 -90 -109 -9 -14 -24 -34
-33 -43 -9 -9 -13 -16 -8 -16 4 0 3 -4 -2 -8 -25 -17 -175 -240 -175 -259 0
-3 -9 -18 -21 -34 -11 -16 -17 -29 -13 -29 4 0 0 -8 -8 -17 -9 -10 -19 -29
-23 -43 -4 -14 -12 -28 -17 -31 -5 -3 -11 -12 -12 -20 -4 -18 -20 -58 -45
-110 -11 -23 -18 -46 -15 -50 3 -5 1 -9 -4 -9 -4 0 -28 -62 -51 -137 -24 -76
-45 -145 -48 -153 -3 -8 -7 -26 -7 -40 -1 -14 -4 -29 -8 -35 -3 -5 -9 -30 -13
-55 -4 -25 -9 -54 -12 -65 -12 -58 -15 -73 -16 -107 -1 -21 -4 -38 -7 -38 -18
0 -18 -630 0 -630 3 0 5 -12 6 -27 0 -16 8 -74 18 -130 21 -122 21 -124 29
-143 6 -16 18 -64 23 -90 4 -22 25 -92 34 -115 5 -11 19 -49 31 -85 12 -36 25
-69 30 -75 5 -5 9 -15 9 -22 0 -7 23 -61 52 -120 28 -60 51 -111 50 -115 -1
-5 3 -8 9 -8 5 0 7 -4 4 -10 -3 -5 -2 -10 4 -10 6 0 13 -11 17 -25 3 -14 11
-29 18 -33 6 -4 21 -27 33 -52 12 -25 29 -54 38 -65 55 -71 85 -115 85 -124 0
-5 3 -11 8 -13 4 -1 34 -37 67 -78 53 -66 91 -109 198 -221 15 -16 27 -27 27
-26 0 2 31 -27 69 -64 39 -37 72 -64 75 -62 3 3 8 -2 12 -11 3 -9 10 -16 15
-16 5 0 17 -8 27 -18 10 -9 29 -25 42 -34 14 -10 49 -36 79 -58 30 -22 60 -40
67 -40 7 0 17 -6 21 -13 4 -8 28 -24 53 -38 25 -13 50 -28 56 -34 6 -5 35 -21
65 -35 30 -14 56 -27 59 -30 13 -13 50 -29 51 -23 4 27 10 164 12 250 1 57 4
103 7 103 3 0 6 35 7 78 1 42 5 118 7 167 8 145 16 292 21 410 8 160 14 246
20 255 3 5 0 10 -7 12 -7 3 -8 10 -3 17 4 7 9 54 11 105 2 50 6 112 7 139 4
52 -3 63 -48 71 -17 3 -49 15 -72 26 -23 11 -48 20 -56 20 -8 0 -20 7 -27 15
-7 8 -16 13 -20 10 -5 -3 -11 -1 -15 5 -4 6 -11 8 -16 5 -5 -4 -9 -2 -9 4 0 6
-14 18 -32 27 -82 42 -308 318 -308 376 0 10 -4 18 -8 18 -4 0 -16 22 -26 50
-10 27 -21 50 -25 50 -3 0 -7 10 -7 23 -2 24 -36 146 -45 162 -4 6 -6 22 -5
38 1 15 -1 27 -4 27 -3 0 -6 8 -7 18 -1 9 -4 40 -9 67 -10 65 -11 365 -1 431
12 85 65 242 118 351 28 57 55 103 60 103 5 0 8 3 7 8 -2 6 29 60 42 72 3 3
17 21 31 40 32 43 125 136 169 170 18 14 41 33 51 42 22 21 177 101 195 101 8
0 14 4 14 8 0 4 17 10 38 15 20 4 46 10 57 12 53 11 226 10 271 -2 64 -17 186
-67 201 -81 6 -7 25 -18 42 -25 17 -7 31 -16 31 -21 0 -5 4 -9 10 -9 5 0 22
-10 37 -22 44 -36 183 -176 183 -184 0 -4 11 -17 26 -30 14 -13 22 -24 18 -24
-4 0 1 -9 10 -19 19 -21 45 -64 74 -121 9 -19 21 -38 25 -41 5 -3 10 -12 11
-20 3 -15 16 -50 41 -109 16 -39 53 -177 53 -200 0 -8 3 -28 7 -45 17 -67 7
-370 -14 -453 -5 -20 -11 -53 -12 -72 -2 -19 -5 -39 -8 -45 -3 -5 -6 -14 -8
-20 -8 -40 -44 -149 -63 -190 -36 -81 -65 -140 -71 -145 -3 -3 -9 -12 -13 -20
-15 -33 -33 -59 -71 -105 -44 -54 -145 -157 -145 -149 0 2 -10 -5 -22 -16 -29
-27 -165 -93 -240 -116 -32 -10 -58 -22 -58 -26 0 -5 -5 -6 -11 -2 -11 6 -10
-45 7 -346 2 -41 6 -116 8 -167 2 -50 7 -96 10 -102 4 -5 2 -12 -4 -16 -6 -4
-8 -11 -5 -16 9 -14 13 -68 30 -454 3 -55 7 -149 11 -210 3 -60 7 -141 9 -180
15 -297 14 -287 38 -291 7 -1 37 -8 67 -14 30 -6 73 -13 95 -16 22 -3 47 -8
55 -10 8 -3 38 -8 65 -10 28 -2 66 -7 85 -11 64 -12 411 -9 504 4 50 7 111 15
136 17 88 10 353 74 413 99 28 12 28 11 31 127 1 19 5 41 9 48 5 7 3 12 -3 12
-7 0 -9 7 -6 17 4 10 9 56 11 103 13 245 15 282 21 291 3 5 0 9 -6 9 -6 0 -8
5 -4 11 3 6 8 37 9 68 5 93 17 341 20 411 2 36 6 124 10 195 12 223 11 300 -2
301 -7 1 -16 3 -20 4 -5 2 -12 4 -18 5 -44 8 -212 94 -249 126 -9 8 -40 34
-69 59 -29 25 -64 60 -78 78 -13 19 -31 41 -41 50 -21 22 -45 85 -53 142 -8
54 -13 431 -7 444 3 4 6 54 8 110 3 97 5 125 20 316 3 47 7 101 9 120 4 66 17
185 20 190 2 3 6 43 10 90 3 47 8 92 10 100 2 8 7 53 10 100 4 47 11 86 16 88
5 2 5 11 -1 21 -5 10 -7 20 -5 23 3 3 7 27 10 54 3 27 7 63 10 79 15 107 26
211 26 238 0 9 8 18 17 18 20 1 145 1 152 0 8 -1 3 -538 -5 -550 -3 -6 -3 -11
2 -11 4 0 7 -272 7 -605 l-2 -605 82 0 81 0 0 885 0 885 22 1 c29 1 84 1 126
0 l32 -1 0 -885 -1 -885 78 0 c55 0 78 4 79 13 0 6 2 405 2 886 l2 874 65 -1
c36 0 77 -1 93 -1 l27 -1 0 -885 0 -885 83 0 82 0 -1 885 0 885 25 1 c15 0 39
2 54 3 38 2 48 -6 52 -45 2 -19 4 -34 5 -34 1 0 4 -13 5 -30 5 -43 14 -124 19
-165 2 -19 7 -64 10 -100 4 -36 11 -101 16 -145 16 -137 22 -189 25 -225 2
-19 6 -66 10 -105 4 -38 9 -86 10 -105 2 -19 6 -66 10 -105 22 -230 36 -487
36 -690 0 -124 -3 -173 -15 -278 -4 -33 -45 -117 -58 -117 -4 0 -8 -6 -8 -12
0 -15 -143 -158 -157 -158 -5 0 -18 -8 -29 -18 -32 -31 -129 -79 -212 -108
-74 -25 -79 -28 -76 -53 1 -14 5 -98 9 -186 11 -245 13 -273 19 -368 3 -48 8
-92 11 -97 3 -5 1 -11 -5 -15 -6 -4 -8 -11 -4 -16 6 -10 7 -33 20 -279 3 -69
7 -147 9 -175 2 -27 4 -83 4 -122 l1 -73 47 27 c26 14 54 32 61 40 7 7 17 13
22 13 10 0 163 112 223 163 121 102 257 232 257 245 0 4 9 13 20 20 11 7 40
40 65 73 25 34 45 57 45 53 0 -9 52 62 91 124 12 17 25 32 29 32 5 0 12 10 15
23 4 12 17 36 29 52 21 28 103 168 132 225 29 59 84 179 84 185 0 4 7 21 14
38 14 29 54 138 60 162 1 6 9 30 16 55 8 25 15 50 16 55 2 16 15 69 21 85 7
18 11 35 18 75 13 86 17 104 26 152 6 29 8 57 4 63 -3 5 -3 10 2 10 11 0 15
89 16 320 0 169 -3 222 -16 335 -2 11 -6 26 -11 33 -4 7 -2 12 4 12 7 0 8 6 1
18 -5 9 -11 35 -15 57 -12 79 -18 111 -31 160 -8 28 -17 61 -20 75 -16 62 -78
246 -86 254 -5 6 -9 16 -9 23 0 8 -17 48 -37 91 -21 42 -38 79 -38 82 -8 32
-153 284 -166 288 -5 2 -9 8 -9 13 0 11 -81 122 -92 127 -5 2 -8 8 -8 14 0 25
-210 255 -348 380 -60 55 -178 148 -188 148 -4 0 -14 8 -23 18 -18 20 -106 82
-116 82 -3 0 -21 11 -39 25 -18 14 -37 25 -41 25 -5 0 -17 8 -27 17 -11 9 -25
18 -32 19 -7 1 -30 13 -52 26 -34 21 -75 40 -241 115 -17 8 -37 15 -45 17 -7
1 -17 4 -23 7 -15 9 -120 43 -120 39 0 -2 -9 2 -21 8 -11 6 -32 13 -45 16 -41
9 -113 28 -129 33 -20 8 -29 10 -70 17 -94 17 -149 26 -195 31 -27 4 -61 9
-75 12 -28 6 -467 13 -472 8z"/>
<path d="M1677 3919 c-9 -6 -26 -28 -37 -50 -11 -21 -26 -39 -32 -39 -6 0 -8
-3 -5 -6 4 -4 0 -19 -7 -33 -22 -40 -53 -130 -65 -186 -27 -119 -33 -164 -35
-252 -2 -51 1 -80 7 -76 6 4 7 1 1 -8 -9 -15 -7 -57 4 -74 4 -5 7 -14 7 -20 0
-5 9 -37 20 -70 10 -33 19 -62 20 -65 3 -8 21 -52 38 -90 26 -58 77 -144 93
-156 8 -6 14 -16 14 -21 0 -6 11 -18 25 -27 14 -9 25 -23 25 -31 0 -8 7 -15
15 -15 7 0 18 -6 22 -13 24 -37 154 -117 193 -117 28 0 26 33 -3 63 -13 12
-32 36 -43 53 -20 32 -25 37 -54 73 -11 13 -22 32 -25 42 -4 11 -11 19 -17 19
-6 0 -8 3 -5 7 4 3 3 11 -2 17 -21 25 -137 339 -147 396 -1 8 -5 29 -9 45 -13
63 -7 358 9 435 3 14 8 37 12 52 3 15 5 29 4 30 -1 2 3 15 9 31 20 52 21 77 3
86 -11 6 -24 6 -35 0z"/>
</g>
</svg>
